<?xml version="1.0" standalone="no"?>
<!DOCTYPE svg PUBLIC "-//W3C//DTD SVG 20010904//EN"
 "http://www.w3.org/TR/2001/REC-SVG-20010904/DTD/svg10.dtd">
<svg version="1.0" xmlns="http://www.w3.org/2000/svg"
 width="426.000000pt" height="487.000000pt" viewBox="0 0 426.000000 487.000000"
 preserveAspectRatio="xMidYMid meet">

<g transform="translate(0.000000,487.000000) scale(0.100000,-0.100000)"
fill="#000000" stroke="none">
<path d="M205 4796 c-72 -36 -128 -99 -154 -174 l-21 -62 0 -2140 c0 -2110 0
-2140 20 -2192 13 -36 37 -70 72 -105 78 -76 98 -83 228 -83 97 0 116 3 158
24 68 35 118 91 142 160 17 50 20 84 20 218 l0 160 29 29 c28 28 33 29 122 29
268 0 613 120 909 316 81 53 382 356 436 439 62 93 59 89 139 260 28 60 115
317 115 341 0 29 33 73 63 83 18 7 297 11 761 11 628 0 739 2 778 15 60 21
172 134 187 190 17 63 13 166 -9 237 -16 53 -30 74 -73 116 -30 27 -71 56 -93
63 -31 11 -204 14 -805 17 -886 3 -789 -12 -820 124 -25 114 -72 245 -125 348
-24 47 -44 89 -44 94 0 14 -61 107 -97 149 -18 20 -33 42 -33 49 0 16 -318
335 -350 352 -57 29 -106 59 -125 76 -19 17 -158 86 -260 130 -89 38 -188 69
-275 85 -47 9 -105 21 -130 26 -25 6 -96 13 -157 16 -85 5 -116 10 -127 22
-11 12 -15 59 -18 201 -3 167 -6 190 -26 235 -31 68 -66 102 -137 136 -53 26
-71 29 -155 29 -80 0 -103 -4 -145 -24z"/>
</g>
</svg>
