<?xml version="1.0" standalone="no"?>
<!DOCTYPE svg PUBLIC "-//W3C//DTD SVG 20010904//EN"
 "http://www.w3.org/TR/2001/REC-SVG-20010904/DTD/svg10.dtd">
<svg version="1.0" xmlns="http://www.w3.org/2000/svg"
 width="602.000000pt" height="487.000000pt" viewBox="0 0 602.000000 487.000000"
 preserveAspectRatio="xMidYMid meet">

<g transform="translate(0.000000,487.000000) scale(0.100000,-0.100000)"
fill="#000000" stroke="none">
<path d="M3763 4803 c-26 -9 -61 -35 -95 -71 -81 -84 -98 -145 -98 -344 0 -84
-5 -160 -10 -168 -7 -11 -36 -17 -102 -22 -51 -3 -106 -9 -123 -12 -16 -4 -59
-11 -95 -16 -91 -13 -169 -33 -280 -70 -99 -34 -321 -139 -355 -170 -11 -9
-40 -28 -65 -41 -43 -22 -410 -374 -410 -393 0 -4 -17 -29 -38 -55 -89 -106
-202 -361 -252 -566 -13 -52 -31 -99 -43 -112 l-20 -23 -752 0 c-852 0 -812 4
-898 -79 -77 -73 -87 -101 -87 -236 0 -138 8 -161 82 -233 100 -97 50 -92 906
-92 l744 0 27 -27 c19 -20 31 -47 40 -93 23 -116 86 -284 146 -390 8 -14 27
-52 43 -85 16 -33 36 -66 46 -74 9 -8 41 -51 70 -95 56 -84 225 -255 327 -331
88 -66 167 -115 183 -115 9 0 30 -12 48 -28 46 -38 83 -54 239 -106 181 -61
358 -96 480 -96 81 0 100 -3 122 -20 25 -20 25 -21 29 -197 5 -209 11 -229 96
-316 81 -83 91 -87 227 -87 135 0 162 10 237 87 85 87 78 -130 78 2303 0 2168
0 2168 -21 2217 -28 65 -72 110 -144 144 -53 26 -70 29 -150 28 -49 -1 -109
-8 -132 -16z"/>
<path d="M4532 3668 c-15 -15 -17 -613 -3 -622 5 -4 282 -6 614 -7 597 -1 606
0 654 21 53 23 125 88 151 135 12 23 16 58 17 145 0 63 -4 128 -8 144 -4 16
-36 58 -69 93 -103 106 -79 103 -767 103 -435 0 -580 -3 -589 -12z"/>
<path d="M4533 1803 c-10 -3 -13 -74 -13 -303 0 -289 1 -300 20 -310 31 -16
1203 -9 1254 9 51 17 125 86 149 140 25 56 34 192 18 257 -9 33 -29 66 -69
112 -95 109 -44 102 -742 101 -333 0 -611 -3 -617 -6z"/>
</g>
</svg>
